<svg width="21" height="21" viewBox="0 0 21 21" fill="none" xmlns="http://www.w3.org/2000/svg">
<path fill-rule="evenodd" clip-rule="evenodd" d="M9.74116 0.010999C8.41276 0.140518 7.33946 0.40834 6.29398 0.8712C5.52501 1.2116 4.60347 1.74639 4.38507 1.97894C4.16777 2.21031 4.31054 2.58865 4.63417 2.63918C4.75757 2.65843 4.83316 2.62407 5.227 2.36968C5.75589 2.028 6.57632 1.61625 7.15578 1.40159C7.56976 1.24822 8.5905 0.972475 8.74418 0.972475C8.82569 0.972475 8.82581 0.97461 8.75206 1.08537C8.08742 2.08326 7.62057 3.31773 7.24048 5.08242L7.17313 5.39508L6.89855 5.46285C6.29808 5.61105 5.84302 6.04062 5.64308 6.6479C5.621 6.71502 5.48726 6.71974 3.60728 6.71974C2.50061 6.71974 1.59515 6.70796 1.59515 6.69351C1.59515 6.62006 2.07041 5.70777 2.2765 5.38555C2.5707 4.92569 2.59081 4.76608 2.37836 4.57621C2.26066 4.471 2.21634 4.45581 2.08018 4.47408C1.86916 4.5024 1.83748 4.53303 1.56831 4.9683C-0.597415 8.47064 -0.514067 12.937 1.78085 16.359L1.95542 16.6194L1.83473 16.8534C1.66816 17.1765 1.6064 17.5629 1.66582 17.9099C1.86411 19.0679 3.11002 19.6994 4.14393 19.166L4.37616 19.0462L4.74004 19.2821C6.40823 20.3635 8.16407 20.919 10.148 20.9928C13.8097 21.129 17.2634 19.3298 19.309 16.2203C20.4702 14.4552 21.0725 12.282 20.993 10.144C20.9192 8.15943 20.364 6.40298 19.2829 4.73422L19.0471 4.37022L19.1669 4.1379C19.3326 3.81647 19.3942 3.42955 19.3349 3.08308C19.1364 1.92414 17.8907 1.29362 16.8551 1.82791L16.6211 1.94865L16.3609 1.77401C15.0549 0.897596 13.5873 0.333995 11.9777 0.0907217C11.5689 0.0289386 10.0957 -0.0235667 9.74116 0.010999ZM10.8596 0.90946C11.76 1.32881 12.6602 3.36498 13.0835 5.93975C13.1299 6.22198 13.178 6.51312 13.1903 6.58669L13.2127 6.72048L11.0932 6.70985L8.97371 6.69921L8.89873 6.50163C8.75908 6.13352 8.49993 5.85613 8.00119 5.54106C7.97706 5.52583 8.10633 4.92955 8.27077 4.29768C8.81182 2.21824 9.71243 0.809089 10.5004 0.809089C10.5794 0.809089 10.741 0.854246 10.8596 0.90946ZM12.8871 1.11103C13.1882 1.18722 13.6192 1.31797 13.8449 1.40159C14.7809 1.74831 16.119 2.49969 16.0619 2.64641C15.9624 2.90167 15.9093 3.23476 15.9296 3.47668C16.0295 4.6717 17.2038 5.37919 18.3473 4.93328C18.4023 4.91177 18.4688 4.98439 18.6544 5.26888C18.8786 5.61245 19.4056 6.60471 19.4056 6.6832C19.4056 6.70418 18.2633 6.71974 16.7255 6.71974H14.0454L13.9331 6.03212C13.6063 4.02949 13.0641 2.35818 12.4115 1.34194C12.3173 1.19518 12.2262 1.05203 12.2091 1.02379C12.1603 0.943123 12.2891 0.959708 12.8871 1.11103ZM18.0562 2.56504C18.7255 2.9148 18.6865 3.86146 17.9898 4.17982C17.3926 4.45269 16.6836 3.9349 16.7473 3.27237C16.7905 2.82186 17.1944 2.45034 17.6409 2.45034C17.7756 2.45034 17.9053 2.48618 18.0562 2.56504ZM3.00685 3.16465C2.85333 3.31822 2.83051 3.45053 2.9258 3.63489C3.06706 3.9081 3.48835 3.9081 3.6296 3.63489C3.73852 3.42418 3.67216 3.18456 3.47694 3.08357C3.29264 2.98825 3.16038 3.01107 3.00685 3.16465ZM7.6971 6.3311C8.12632 6.54506 8.31772 7.05809 8.12546 7.4792C7.80565 8.17958 6.86223 8.21514 6.50762 7.54016C6.40798 7.35046 6.3919 7.27829 6.4056 7.0821C6.45136 6.42728 7.11539 6.04115 7.6971 6.3311ZM5.64308 7.61262C5.79147 8.06337 6.13701 8.47462 6.52769 8.66556L6.7614 8.77976L6.73793 9.91522C6.71692 10.9307 6.74618 11.9006 6.83379 13.093L6.86018 13.4522H4.0667H1.27321L1.23004 13.3188C1.14029 13.0415 0.98131 12.3236 0.911463 11.8804C0.857252 11.5361 0.839278 11.1823 0.840098 10.476C0.841453 9.35433 0.92123 8.76929 1.21104 7.7563L1.27268 7.54078H3.44604C5.47959 7.54078 5.62096 7.54541 5.64308 7.61262ZM13.3101 7.59209C13.3951 7.85408 13.4806 10.4949 13.4362 11.4873L13.4057 12.1702L13.2702 12.1922C13.0217 12.2326 12.6801 12.4341 12.4485 12.6769C12.244 12.8914 12.0202 13.2688 12.0192 13.4009C12.0186 13.4761 7.71492 13.4761 7.69058 13.4009C7.60571 13.1393 7.52011 10.4984 7.56439 9.50774L7.5948 8.82681L7.7951 8.77545C8.04806 8.71063 8.43365 8.46313 8.60613 8.25496C8.72539 8.11099 8.89307 7.80293 8.95573 7.61262C8.97785 7.54541 9.11845 7.54078 11.1364 7.54078C12.8258 7.54078 13.2971 7.5519 13.3101 7.59209ZM19.7707 7.67419C19.861 7.95318 20.0195 8.67028 20.0887 9.11261C20.1905 9.7632 20.1908 11.2019 20.0893 11.8512C20.0137 12.3342 19.9018 12.8534 19.7906 13.2367L19.728 13.4522H17.5446H15.3611L15.2435 13.1824C15.0945 12.8402 14.8011 12.5178 14.4854 12.3495L14.2392 12.2182L14.2627 11.0803C14.2838 10.0622 14.2546 9.0934 14.1669 7.89998L14.1405 7.54078H16.934H19.7275L19.7707 7.67419ZM14.0733 13.0725C14.2191 13.1465 14.3384 13.2468 14.4192 13.3634C14.5307 13.5243 14.5426 13.5724 14.5426 13.8628C14.5426 14.1531 14.5307 14.2013 14.4192 14.3621C14.275 14.5703 13.9281 14.766 13.7042 14.7657C13.1854 14.7649 12.7824 14.3701 12.7824 13.8628C12.7824 13.183 13.466 12.7645 14.0733 13.0725ZM7.06758 14.9609C7.40089 17.0033 7.94534 18.6614 8.62792 19.7127C8.78235 19.9505 8.80234 20.0021 8.74398 20.0118C8.63318 20.0304 7.60879 19.7593 7.15578 19.5914C6.21978 19.2447 4.88167 18.4933 4.93883 18.3466C5.03831 18.0914 5.09137 17.7583 5.07114 17.5163C4.97117 16.3213 3.79687 15.6138 2.65344 16.0597C2.59836 16.0813 2.53192 16.0086 2.34631 15.7241C2.12216 15.3806 1.59515 14.3883 1.59515 14.3098C1.59515 14.2888 2.73744 14.2733 4.27525 14.2733H6.95535L7.06758 14.9609ZM12.0192 14.3246C12.0194 14.3528 12.0649 14.4733 12.1203 14.5923C12.2447 14.8597 12.5757 15.216 12.8201 15.3457C12.9211 15.3993 13.0037 15.4643 13.0037 15.4901C13.0037 15.5848 12.7543 16.6322 12.6305 17.0578C12.169 18.6433 11.5013 19.7847 10.861 20.0829C10.5875 20.2102 10.4135 20.2104 10.1412 20.0836C9.23972 19.6637 8.37345 17.7055 7.91588 15.0533C7.84771 14.6581 7.79194 14.321 7.7919 14.3041C7.79186 14.2871 8.74291 14.2733 9.90531 14.2733C11.5685 14.2733 12.0188 14.2842 12.0192 14.3246ZM19.4056 14.3001C19.4056 14.355 18.9199 15.291 18.7481 15.5673C17.9841 16.7956 16.7973 17.9828 15.5694 18.747C15.1391 19.0148 14.3891 19.3818 13.8841 19.5716C13.4364 19.74 12.4203 20.0205 12.2585 20.0205C12.1749 20.0205 12.1747 20.0187 12.2486 19.9077C12.9072 18.919 13.3942 17.6319 13.7608 15.9115L13.8272 15.5996L14.0823 15.5287C14.6315 15.3759 15.0271 15.0402 15.2435 14.5432L15.3611 14.2733H17.3833C18.4955 14.2733 19.4056 14.2854 19.4056 14.3001ZM3.77508 16.8511C4.46197 17.2101 4.39348 18.206 3.66272 18.4851C3.07715 18.7089 2.42206 18.2196 2.46598 17.5914C2.49922 17.1158 2.89589 16.7364 3.35978 16.7364C3.49442 16.7364 3.62419 16.7722 3.77508 16.8511Z" fill="#8E2424"/>
</svg>
